<svg xmlns="http://www.w3.org/2000/svg" viewBox="0 0 48 48"><circle cx="24" cy="24" r="22" fill="#65717a" stroke="#fff" stroke-width="2"></circle><svg xmlns="http://www.w3.org/2000/svg" width="26" height="26" viewBox="0 0 24 24" fill="none" stroke="#fff" stroke-width="2.25" stroke-linecap="round" stroke-linejoin="round" class="lucide lucide-wrench" aria-hidden="true" x="11" y="11"><path d="M14.7 6.3a1 1 0 0 0 0 1.4l1.6 1.6a1 1 0 0 0 1.4 0l3.106-3.105c.32-.322.863-.22.983.218a6 6 0 0 1-8.259 7.057l-7.91 7.91a1 1 0 0 1-2.999-3l7.91-7.91a6 6 0 0 1 7.057-8.259c.438.12.54.662.219.984z"></path></svg></svg>